{
  "asset": {
    "generator": "Microsoft GLTF Exporter 2.8.3.41",
    "version": "2.0"
  },
  "accessors": [
    {
      "bufferView": 0,
      "componentType": 5123,
      "count": 207429,
      "type": "SCALAR"
    },
    {
      "bufferView": 1,
      "componentType": 5126,
      "count": 54621,
      "type": "VEC3",
      "max": [
        12.466318130493164,
        3.063093662261963,
        12.132737159729004
      ],
      "min": [
        -12.560022354125977,
        -1.415084719657898,
        -12.83903980255127
      ]
    },
    {
      "bufferView": 2,
      "componentType": 5126,
      "count": 54621,
      "type": "VEC3"
    },
    {
      "bufferView": 3,
      "componentType": 5126,
      "count": 54621,
      "type": "VEC4"
    },
    {
      "bufferView": 4,
      "componentType": 5126,
      "count": 54621,
      "type": "VEC2"
    }
  ],
  "bufferViews": [
    {
      "buffer": 0,
      "byteOffset": 0,
      "byteLength": 414860,
      "target": 34963
    },
    {
      "buffer": 0,
      "byteOffset": 414860,
      "byteLength": 655452,
      "target": 34962
    },
    {
      "buffer": 0,
      "byteOffset": 1070312,
      "byteLength": 655452,
      "target": 34962
    },
    {
      "buffer": 0,
      "byteOffset": 1725764,
      "byteLength": 873936,
      "target": 34962
    },
    {
      "buffer": 0,
      "byteOffset": 2599700,
      "byteLength": 436968,
      "target": 34962
    }
  ],
  "buffers": [
    {
      "uri": "Flower crown_data.bin",
      "byteLength": 3036668
    }
  ],
  "images": [
    {
      "uri": "Flower crown_img0.png"
    },
    {
      "uri": "Flower crown_img1.png"
    },
    {
      "uri": "Flower crown_img2.png"
    },
    {
      "uri": "Flower crown_img3.png"
    }
  ],
  "materials": [
    {
      "pbrMetallicRoughness": {},
      "normalTexture": {
        "index": 2
      },
      "occlusionTexture": {
        "index": 3
      },
      "doubleSided": true,
      "extensions": {
        "KHR_materials_pbrSpecularGlossiness": {
          "diffuseTexture": {
            "index": 0
          },
          "specularGlossinessTexture": {
            "index": 1
          }
        }
      }
    }
  ],
  "meshes": [
    {
      "primitives": [
        {
          "attributes": {
            "TANGENT": 3,
            "NORMAL": 2,
            "POSITION": 1,
            "TEXCOORD_0": 4
          },
          "indices": 0,
          "material": 0
        }
      ]
    }
  ],
  "nodes": [
    {
      "children": [
        1
      ],
      "scale": [
        0.009999999776482582,
        0.009999999776482582,
        0.009999999776482582
      ],
      "name": "RootNode.0"
    },
    {
      "mesh": 0,
      "name": "crown_of_flowers.1"
    }
  ],
  "samplers": [
    {
      "magFilter": 9729,
      "minFilter": 9985
    },
    {
      "magFilter": 9729,
      "minFilter": 9985
    },
    {
      "magFilter": 9729,
      "minFilter": 9985
    },
    {
      "magFilter": 9729,
      "minFilter": 9985
    }
  ],
  "scenes": [
    {
      "nodes": [
        0
      ]
    }
  ],
  "textures": [
    {
      "sampler": 0,
      "source": 0
    },
    {
      "sampler": 1,
      "source": 1
    },
    {
      "sampler": 2,
      "source": 2
    },
    {
      "sampler": 3,
      "source": 3
    }
  ],
  "scene": 0,
  "extensionsUsed": [
    "KHR_materials_pbrSpecularGlossiness"
  ],
  "extensionsRequired": [
    "KHR_materials_pbrSpecularGlossiness"
  ]
}