{
  "asset": {
    "generator": "Microsoft GLTF Exporter 2.8.3.41",
    "version": "2.0"
  },
  "accessors": [
    {
      "bufferView": 0,
      "componentType": 5123,
      "count": 165060,
      "type": "SCALAR"
    },
    {
      "bufferView": 1,
      "componentType": 5126,
      "count": 28822,
      "type": "VEC3",
      "max": [
        0.24176025390625,
        0.7396240234375,
        0.46343994140625
      ],
      "min": [
        -0.24176025390625,
        0,
        -0.46343994140625
      ]
    },
    {
      "bufferView": 2,
      "componentType": 5126,
      "count": 28822,
      "type": "VEC3"
    },
    {
      "bufferView": 3,
      "componentType": 5126,
      "count": 28822,
      "type": "VEC4"
    },
    {
      "bufferView": 4,
      "componentType": 5126,
      "count": 28822,
      "type": "VEC2"
    }
  ],
  "bufferViews": [
    {
      "buffer": 0,
      "byteOffset": 0,
      "byteLength": 330120,
      "target": 34963
    },
    {
      "buffer": 0,
      "byteOffset": 330120,
      "byteLength": 345864,
      "target": 34962
    },
    {
      "buffer": 0,
      "byteOffset": 675984,
      "byteLength": 345864,
      "target": 34962
    },
    {
      "buffer": 0,
      "byteOffset": 1021848,
      "byteLength": 461152,
      "target": 34962
    },
    {
      "buffer": 0,
      "byteOffset": 1483000,
      "byteLength": 230576,
      "target": 34962
    }
  ],
  "buffers": [
    {
      "uri": "Mosquito_data.bin",
      "byteLength": 1713576
    }
  ],
  "images": [
    {
      "uri": "Mosquito_img0.png"
    },
    {
      "uri": "Mosquito_img1.png"
    }
  ],
  "materials": [
    {
      "pbrMetallicRoughness": {},
      "doubleSided": true,
      "extensions": {
        "KHR_materials_pbrSpecularGlossiness": {
          "diffuseTexture": {
            "index": 0
          },
          "specularGlossinessTexture": {
            "index": 1
          }
        }
      }
    }
  ],
  "meshes": [
    {
      "primitives": [
        {
          "attributes": {
            "TANGENT": 3,
            "NORMAL": 2,
            "POSITION": 1,
            "TEXCOORD_0": 4
          },
          "indices": 0,
          "material": 0
        }
      ]
    }
  ],
  "nodes": [
    {
      "children": [
        1
      ],
      "scale": [
        0.009999999776482582,
        0.009999999776482582,
        0.009999999776482582
      ],
      "name": "RootNode.0"
    },
    {
      "mesh": 0,
      "name": "mosquito.1"
    }
  ],
  "samplers": [
    {
      "magFilter": 9729,
      "minFilter": 9985
    },
    {
      "magFilter": 9729,
      "minFilter": 9985
    }
  ],
  "scenes": [
    {
      "nodes": [
        0
      ]
    }
  ],
  "textures": [
    {
      "sampler": 0,
      "source": 0
    },
    {
      "sampler": 1,
      "source": 1
    }
  ],
  "scene": 0,
  "extensionsUsed": [
    "KHR_materials_pbrSpecularGlossiness"
  ],
  "extensionsRequired": [
    "KHR_materials_pbrSpecularGlossiness"
  ]
}